<svg width="580" height="267" viewBox="0 0 580 267" fill="none" xmlns="http://www.w3.org/2000/svg">
<rect width="1920" height="6275" transform="translate(-51 -617)" fill="white"/>
<path d="M100.368 249.648V267H98.016V249.648H100.368ZM106.286 267H104.03V255.264H106.07L106.31 257.064C107.054 255.72 108.542 254.928 110.198 254.928C113.294 254.928 114.71 256.824 114.71 259.824V267H112.454V260.328C112.454 257.952 111.35 256.992 109.622 256.992C107.51 256.992 106.286 258.504 106.286 260.784V267ZM121.147 267H118.891V257.16H116.587V255.264H118.891V251.592H121.147V255.264H123.451V257.16H121.147V267ZM132.196 255.168V257.232H131.188C129.052 257.232 127.732 258.528 127.732 260.784V267H125.476V255.288H127.588L127.732 257.064C128.212 255.84 129.388 255.024 130.996 255.024C131.404 255.024 131.74 255.072 132.196 255.168ZM133.122 261.12C133.122 257.496 135.714 254.952 139.242 254.952C142.746 254.952 145.338 257.496 145.338 261.12C145.338 264.744 142.746 267.288 139.242 267.288C135.714 267.288 133.122 264.744 133.122 261.12ZM135.402 261.12C135.402 263.568 136.962 265.272 139.242 265.272C141.498 265.272 143.082 263.568 143.082 261.12C143.082 258.672 141.498 256.968 139.242 256.968C136.962 256.968 135.402 258.672 135.402 261.12ZM152.539 267.288C149.131 267.288 147.067 264.744 147.067 261.168C147.067 257.568 149.155 254.928 152.635 254.928C154.435 254.928 155.947 255.72 156.739 257.16V249.336H158.971V267H156.955L156.763 264.864C155.995 266.472 154.411 267.288 152.539 267.288ZM152.995 265.248C155.299 265.248 156.715 263.544 156.715 261.096C156.715 258.696 155.299 256.968 152.995 256.968C150.691 256.968 149.347 258.696 149.347 261.096C149.347 263.52 150.691 265.248 152.995 265.248ZM170.338 255.264H172.57V267H170.554L170.314 265.224C169.642 266.448 168.082 267.288 166.354 267.288C163.618 267.288 162.082 265.44 162.082 262.56V255.264H164.338V261.816C164.338 264.336 165.418 265.296 167.146 265.296C169.21 265.296 170.338 263.976 170.338 261.456V255.264ZM174.841 261.144C174.841 257.472 177.169 254.928 180.601 254.928C183.553 254.928 185.617 256.608 186.025 259.224H183.769C183.385 257.736 182.185 256.944 180.673 256.944C178.537 256.944 177.073 258.576 177.073 261.12C177.073 263.64 178.441 265.272 180.577 265.272C182.185 265.272 183.385 264.432 183.793 263.04H186.049C185.593 265.584 183.409 267.288 180.577 267.288C177.121 267.288 174.841 264.84 174.841 261.144ZM191.741 267H189.485V257.16H187.181V255.264H189.485V251.592H191.741V255.264H194.045V257.16H191.741V267ZM197.174 252.48C196.358 252.48 195.686 251.808 195.686 250.992C195.686 250.152 196.358 249.504 197.174 249.504C197.99 249.504 198.662 250.152 198.662 250.992C198.662 251.808 197.99 252.48 197.174 252.48ZM196.07 267V255.264H198.326V267H196.07ZM200.833 261.12C200.833 257.496 203.425 254.952 206.953 254.952C210.457 254.952 213.049 257.496 213.049 261.12C213.049 264.744 210.457 267.288 206.953 267.288C203.425 267.288 200.833 264.744 200.833 261.12ZM203.113 261.12C203.113 263.568 204.673 265.272 206.953 265.272C209.209 265.272 210.793 263.568 210.793 261.12C210.793 258.672 209.209 256.968 206.953 256.968C204.673 256.968 203.113 258.672 203.113 261.12ZM217.802 267H215.546V255.264H217.586L217.826 257.064C218.57 255.72 220.058 254.928 221.714 254.928C224.81 254.928 226.226 256.824 226.226 259.824V267H223.97V260.328C223.97 257.952 222.866 256.992 221.138 256.992C219.026 256.992 217.802 258.504 217.802 260.784V267Z" fill="black"/>
<path fill-rule="evenodd" clip-rule="evenodd" d="M-1 -313C-1 -357.804 -1 -380.206 7.70495 -397.319C15.362 -412.372 27.5801 -424.611 42.608 -432.281C59.6924 -441 82.0571 -441 126.787 -441H1668.21C1712.94 -441 1735.31 -441 1752.39 -432.281C1767.42 -424.611 1779.64 -412.372 1787.3 -397.319C1796 -380.206 1796 -357.804 1796 -313V634C1796 678.804 1796 701.206 1787.3 718.319C1779.64 733.372 1767.42 745.611 1752.39 753.281C1735.31 762 1712.94 762 1668.21 762H708.03C663.226 762 640.824 762 623.711 753.281C608.658 745.611 596.419 733.372 588.75 718.319C580.03 701.206 580.03 678.804 580.03 634V132C580.03 87.1958 580.03 64.7937 571.325 47.6808C563.668 32.6278 551.45 20.3893 536.422 12.7195C519.338 4 492.177 -5 452.243 4L163.787 90.554C107.937 107.312 80.0124 115.691 57.8789 109.633C38.4945 104.327 21.8173 91.9193 11.1641 74.8776C-1 55.4191 -1 26.2642 -1 -32.0457V-313ZM8.13518 719.768C0 703.614 0 682.468 0 640.175V269.418C0 235.625 0 218.729 5.71779 204.428C10.7659 191.803 18.9487 180.673 29.4935 172.088C41.4371 162.365 57.5645 157.325 89.8191 147.245L153.692 127.284L371.601 61.2405L371.601 61.2404C392.451 54.9214 402.876 51.7618 416.776 49.3577C425.629 47.8264 445.165 46.0795 454.146 46.016C468.247 45.9162 471.43 46.2873 477.795 47.0295C487.682 48.1824 495.416 50.1972 502.246 53.7183C516.291 60.9583 527.709 72.5107 534.865 86.72C543 102.874 543 124.02 543 166.313V640.175C543 678.225 543 697.25 536.66 712.212C528.557 731.335 513.335 746.557 494.212 754.66C479.25 761 460.225 761 422.175 761H119.423C77.6208 761 56.7199 761 40.7537 752.769C26.7094 745.529 15.2911 733.977 8.13518 719.768Z" fill="#F7F8F8"/>
</svg>
