<svg width="16" height="16" fill="none" xmlns="http://www.w3.org/2000/svg"><path fill-rule="evenodd" clip-rule="evenodd" d="M8.785.86a1.828 1.828 0 0 0-1.567 0c-.343.163-.587.471-.803.82-.216.35-.454.826-.75 1.418l-.012.024-.24.477c-.203.407-.262.513-.336.591a.831.831 0 0 1-.27.188c-.098.043-.219.062-.67.112l-.217.024-.026.003c-.712.08-1.281.142-1.712.23-.425.086-.82.214-1.098.497-.396.404-.583.97-.505 1.53.054.393.296.731.586 1.054.294.326.713.716 1.238 1.203l.02.018.229.213c.397.369.5.473.556.585.06.115.09.242.092.37.001.125-.041.268-.223.787l-.009.025c-.268.766-.481 1.372-.602 1.844-.118.459-.183.909-.03 1.299.215.548.682.96 1.253 1.104.405.103.84-.017 1.275-.189.448-.176 1.015-.46 1.73-.817l.023-.012.556-.278c.375-.187.477-.233.575-.252a.831.831 0 0 1 .307 0c.098.019.2.065.575.252l.556.278.023.012c.715.357 1.282.64 1.73.817.436.172.87.292 1.275.19a1.828 1.828 0 0 0 1.254-1.105c.153-.39.087-.84-.03-1.299-.122-.472-.334-1.078-.603-1.844l-.009-.025c-.182-.519-.224-.662-.223-.786a.832.832 0 0 1 .092-.371c.057-.112.159-.216.557-.585l.229-.213.019-.018c.525-.487.944-.877 1.238-1.203.29-.323.532-.661.586-1.053a1.828 1.828 0 0 0-.505-1.531c-.277-.283-.673-.41-1.098-.497-.43-.088-1-.15-1.711-.23l-.026-.003-.217-.024c-.452-.05-.572-.069-.67-.112a.83.83 0 0 1-.27-.188c-.075-.078-.134-.184-.337-.59l-.24-.478-.01-.024c-.297-.592-.535-1.068-.752-1.419-.216-.348-.46-.656-.803-.819Z" fill="#FFC250"/></svg>